<?xml version="1.0" encoding="UTF-8" standalone="no" ?>
<!DOCTYPE svg PUBLIC "-//W3C//DTD SVG 1.1//EN" "http://www.w3.org/Graphics/SVG/1.1/DTD/svg11.dtd">
<svg xmlns="http://www.w3.org/2000/svg" xmlns:xlink="http://www.w3.org/1999/xlink" version="1.1" width="400" height="400" viewBox="0 0 400 400" xml:space="preserve">
<desc>Created with Fabric.js 3.6.2</desc>
<defs>
</defs>
<g transform="matrix(7.64 0 0 7.64 200 200)" id="vk_vkontakte_media_social"  >
<path style="stroke: none; stroke-width: 1; stroke-dasharray: none; stroke-linecap: butt; stroke-dashoffset: 0; stroke-linejoin: miter; stroke-miterlimit: 4; fill: rgb(0,0,0); fill-rule: nonzero; opacity: 1;"  transform=" translate(-16.09, -16.5)" d="M 28.89 22 a 30.07 30.07 0 0 0 -4.13 -5.15 a 0.2 0.2 0 0 1 0 -0.25 a 40.66 40.66 0 0 0 3.55 -5.81 a 1.9 1.9 0 0 0 -0.08 -1.86 A 1.81 1.81 0 0 0 26.65 8 h -3 a 2 2 0 0 0 -1.79 1.19 a 35 35 0 0 1 -3.12 5.51 V 9.8 A 1.79 1.79 0 0 0 16.94 8 H 12.56 a 1.4 1.4 0 0 0 -1.12 2.21 l 0.4 0.56 a 1.84 1.84 0 0 1 0.33 1.05 v 3.84 A 26.11 26.11 0 0 1 9.05 9.35 A 2 2 0 0 0 7.16 8 H 4.71 a 1.73 1.73 0 0 0 -1.66 2.14 c 1.35 5.73 4.18 10.48 7.77 13 a 1 1 0 0 0 1.39 -0.23 a 1 1 0 0 0 -0.23 -1.4 C 8.84 19.31 6.34 15.12 5.07 10 l 2.1 0 a 26.12 26.12 0 0 0 4.1 7.75 a 1.6 1.6 0 0 0 1.8 0.52 a 1.64 1.64 0 0 0 1.1 -1.57 V 11.82 A 3.78 3.78 0 0 0 13.71 10 h 3 v 5.43 A 1.77 1.77 0 0 0 18 17.15 a 1.74 1.74 0 0 0 2 -0.69 A 36.87 36.87 0 0 0 23.62 10 h 2.8 a 39.81 39.81 0 0 1 -3.29 5.37 a 2.17 2.17 0 0 0 0.2 2.83 A 32.08 32.08 0 0 1 27.25 23 H 23.9 a 14 14 0 0 0 -4.07 -4.31 a 1.64 1.64 0 0 0 -1.73 -0.13 a 1.69 1.69 0 0 0 -0.92 1.52 v 2.38 a 0.53 0.53 0 0 1 -0.5 0.55 h -0.86 a 1 1 0 0 0 0 2 h 0.86 a 2.52 2.52 0 0 0 2.5 -2.55 V 20.69 a 11.78 11.78 0 0 1 3 3.32 a 2 2 0 0 0 1.69 1 h 3.38 a 1.92 1.92 0 0 0 1.69 -1 A 2 2 0 0 0 28.89 22 Z" stroke-linecap="round" />
</g>
</svg>