<svg width="21" height="26" fill="none" xmlns="http://www.w3.org/2000/svg"><path d="M13.04 11.311c2.184.26 3.913.988 5.187 2.184 1.3 1.196 1.95 2.678 1.95 4.446 0 1.352-.39 2.574-1.17 3.666-.78 1.092-1.859 1.963-3.237 2.613-1.378.624-2.912.936-4.602.936-.728 0-1.56-.039-2.496-.117a59.417 59.417 0 00-1.365-.078 35.462 35.462 0 00-1.755-.039l-2.847.039c-.52.026-1.222.039-2.106.039-.078 0-.117-.078-.117-.234 0-.156.039-.234.117-.234.754 0 1.326-.065 1.716-.195.39-.156.663-.416.819-.78.182-.39.273-.962.273-1.716V3.784c0-1.092-.182-1.807-.546-2.145-.364-.364-1.105-.546-2.223-.546-.052 0-.078-.078-.078-.234C.56.703.586.625.638.625l2.067.039a69.13 69.13 0 002.847.078c.728 0 1.482-.039 2.262-.117.26-.026.65-.052 1.17-.078.52-.026.975-.039 1.365-.039 2.366 0 4.199.429 5.499 1.287 1.3.858 1.95 2.106 1.95 3.744 0 1.248-.416 2.379-1.248 3.393-.806 1.014-1.976 1.807-3.51 2.379zM9.764 1.366c-.754 0-1.274.182-1.56.546-.286.338-.429.988-.429 1.95v7.41l1.56.039c1.352 0 2.392-.507 3.12-1.521.728-1.014 1.092-2.314 1.092-3.9 0-1.482-.325-2.6-.975-3.354-.65-.78-1.586-1.17-2.808-1.17zm.741 22.815c3.406 0 5.109-1.768 5.109-5.304 0-2.002-.481-3.588-1.443-4.758-.962-1.17-2.418-1.755-4.368-1.755-.754 0-1.43.026-2.028.078v9.399c0 .858.169 1.469.507 1.833.338.338 1.079.507 2.223.507z" fill="#4C4037"/></svg>