<svg width="473" height="555" fill="none" xmlns="http://www.w3.org/2000/svg"><path d="M343.58 1c17.88 10.503 33.911 24.866 48.642 39.178 15.754 15.305 32.818 33.753 44.562 52.135 10.868 17.011 21.877 33.503 28.243 52.745 7.659 23.148 8.911 54.43 4.237 78.203-4.447 22.619-14.968 39.119-29.577 56.861-12.124 14.724-27.97 22.779-44.405 32.241-6.527 3.758-13.557 5.694-20.555 8.309-7.774 2.904-14.75 7.77-22.674 9.908-11.973 3.232-24.917 7.44-33.892 16.159-22.433 21.795-14.213 48.374-17.121 76.63-1.113 10.805-6.15 20.688-10.935 30.542-6.954 14.323-23.333 23.142-38.271 27.886-19.135 3.984-43.738 17.927-57.862 24.788-29.159 14.165-52.395 48.946-79.276 47.363C63.882 550.956 49.706 536.795.5 527.5" stroke="#B6A497" stroke-width=".5" stroke-linecap="round"/></svg>